<svg id="Vrstva_1" data-name="Vrstva 1" xmlns="http://www.w3.org/2000/svg" viewBox="0 0 276.16 534.72"><defs><style>.cls-1{fill:#f6c19b;}.cls-2{fill:#362338;}.cls-3{fill:#27badb;}.cls-4{fill:#fdd882;}.cls-5{fill:#ef937e;}.cls-6{fill:#1d1d1b;}.cls-7{fill:#c52455;}.cls-8{fill:#e7edf2;}.cls-9{fill:#b17f4a;}</style></defs><rect class="cls-1" x="156.08" y="396.3" width="21.07" height="137.56"/><rect class="cls-1" x="193.79" y="396.3" width="21.07" height="137.56"/><path class="cls-2" d="M266.28,582a23.05,23.05,0,0,0-23.06,23.06h46.12A23.06,23.06,0,0,0,266.28,582Z" transform="translate(-112.15 -70.36)"/><path class="cls-2" d="M329,582A23.05,23.05,0,0,0,306,605.08h46.12A23.06,23.06,0,0,0,329,582Z" transform="translate(-112.15 -70.36)"/><rect class="cls-3" x="124.98" y="197.95" width="121.02" height="241.69" rx="60.51"/><ellipse class="cls-4" cx="185.49" cy="96.85" rx="85.02" ry="96.85"/><ellipse class="cls-4" cx="185.49" cy="101.07" rx="84.01" ry="87.52"/><rect class="cls-5" x="168.85" y="159.32" width="33.28" height="64.33" rx="16.64"/><rect class="cls-1" x="124.98" y="16.05" width="121.02" height="170.04" rx="60.51"/><ellipse class="cls-4" cx="273.18" cy="116.52" rx="54.24" ry="22.5" transform="translate(-127.78 115.44) rotate(-36.59)"/><rect class="cls-4" x="222.44" y="136.03" width="41.59" height="22.85" rx="8.12" transform="translate(415.45 83.18) rotate(150)"/><ellipse class="cls-4" cx="340.43" cy="112.84" rx="12.39" ry="34.82" transform="translate(-92.24 203.41) rotate(-45)"/><circle class="cls-6" cx="156.86" cy="87.08" r="9.77"/><circle class="cls-6" cx="214.12" cy="87.08" r="9.77"/><rect class="cls-5" x="180.09" y="80.97" width="10.79" height="45.5" rx="5.39"/><path d="M297.64,225.05a23.41,23.41,0,0,1,17.67,7.76,20.15,20.15,0,0,0,5.85-14c0-.09,0-.19,0-.29l-45.58-7a19.47,19.47,0,0,0-1.45,7.3,20.15,20.15,0,0,0,5.85,14A23.42,23.42,0,0,1,297.64,225.05Z" transform="translate(-112.15 -70.36)"/><path class="cls-7" d="M297.64,240.09a24.55,24.55,0,0,0,17.67-7.28,24,24,0,0,0-35.34,0A24.55,24.55,0,0,0,297.64,240.09Z" transform="translate(-112.15 -70.36)"/><path class="cls-8" d="M237.13,326.48v91.15A60.52,60.52,0,0,0,281,475.8V268.31A60.53,60.53,0,0,0,237.13,326.48Z" transform="translate(-112.15 -70.36)"/><path class="cls-8" d="M314.28,268.31V475.8a60.5,60.5,0,0,0,43.87-58.17V326.48A60.51,60.51,0,0,0,314.28,268.31Z" transform="translate(-112.15 -70.36)"/><path class="cls-8" d="M237.13,388.6v91.14A60.53,60.53,0,0,0,281,537.92V330.42A60.53,60.53,0,0,0,237.13,388.6Z" transform="translate(-112.15 -70.36)"/><path class="cls-8" d="M314.28,330.42v207.5a60.52,60.52,0,0,0,43.87-58.18V388.6A60.52,60.52,0,0,0,314.28,330.42Z" transform="translate(-112.15 -70.36)"/><rect class="cls-9" x="285.17" y="359.15" width="62.65" height="85.04" rx="11.64" transform="translate(-280.35 168.26) rotate(-33.17)"/><rect class="cls-8" x="345.44" y="268.5" width="21.07" height="93.19" rx="10.54" transform="translate(-229.82 203.92) rotate(-36.59)"/><rect class="cls-5" x="300.48" y="393.92" width="8.21" height="21.15" rx="4.1" transform="translate(-151.57 705.68) rotate(-100.22)"/><rect class="cls-8" x="341.29" y="324.86" width="21.07" height="92.05" rx="10.54" transform="translate(270.96 -209.72) rotate(47)"/><rect class="cls-1" x="314.3" y="390.26" width="10.29" height="21.64" rx="5.15" transform="translate(282.74 -176.44) rotate(47)"/><rect class="cls-1" x="295.18" y="396.58" width="19.8" height="35.78" rx="9.9" transform="translate(324.01 -153.55) rotate(51.11)"/><rect class="cls-8" x="225.75" y="266.92" width="21.07" height="100.34" rx="10.54" transform="translate(95.44 641.14) rotate(-139.15)"/><rect class="cls-8" x="169.05" y="269.95" width="21.07" height="100.34" rx="10.54" transform="translate(-292.18 176.21) rotate(-49.15)"/><rect class="cls-1" x="137.81" y="277.63" width="10.29" height="21.64" rx="5.15" transform="translate(-280.89 137.55) rotate(-49.15)"/><rect class="cls-1" x="118.2" y="257.71" width="19.8" height="35.78" rx="9.9" transform="translate(-276.31 121.87) rotate(-49.15)"/><rect class="cls-5" x="132.27" y="263.92" width="8.21" height="21.15" rx="4.1" transform="translate(302.7 332.19) rotate(141.11)"/></svg>