<?xml version="1.0" encoding="utf-8"?>
<!-- Generator: Adobe Illustrator 25.2.0, SVG Export Plug-In . SVG Version: 6.00 Build 0)  -->
<svg version="1.1" id="Vrstva_1" xmlns="http://www.w3.org/2000/svg" xmlns:xlink="http://www.w3.org/1999/xlink" x="0px" y="0px"
	 viewBox="0 0 595.28 841.89" style="enable-background:new 0 0 595.28 841.89;" xml:space="preserve">
<style type="text/css">
	.st0{fill:#ABDCED;}
	.st1{fill:#3C63AD;}
	.st2{fill:#FFFFFF;stroke:#6DA4D9;stroke-width:3.5;stroke-miterlimit:10;}
	.st3{fill:#ABDCED;stroke:#4CC2F1;stroke-miterlimit:10;}
	.st4{fill:#6599CC;}
	.st5{fill:#F5FBFF;}
	.st6{fill:#70C8F2;}
	.st7{fill:#9EC9ED;}
	.st8{fill:#3299CC;}
	.st9{fill:#F6C19A;}
	.st10{fill:#372338;}
	.st11{fill:#29BADB;}
	.st12{fill:#FED882;}
	.st13{fill:#EF947E;}
	.st14{fill:#1E1E1C;}
	.st15{fill:#020203;}
	.st16{fill:#C62556;}
	.st17{fill:#E7EDF3;}
	.st18{fill:#B1804A;}
</style>
<g>
	<path class="st0" d="M485.31,538.89H127.52c-17.66,0-31.97-14.31-31.97-31.97V149.13c0-17.65,14.31-31.97,31.97-31.97h357.79
		c17.66,0,31.97,14.31,31.97,31.97v357.79C517.28,524.57,502.97,538.89,485.31,538.89z"/>
	<path class="st1" d="M95.56,506.92c0,17.65,14.31,31.97,31.97,31.97h357.79c17.66,0,31.97-14.31,31.97-31.97v-39.81H95.56V506.92z"
		/>
</g>
<g>
	<g>
		<rect x="405.88" y="162.25" class="st2" width="75.08" height="109.54"/>
		<circle cx="443.42" cy="157.96" r="2.66"/>
		<rect x="413.81" y="197.2" class="st0" width="22.47" height="2.65"/>
		<rect x="413.81" y="201.49" class="st0" width="22.47" height="2.65"/>
		<rect x="413.81" y="205.78" class="st0" width="22.47" height="2.65"/>
		<rect x="413.81" y="210.08" class="st0" width="22.47" height="2.65"/>
		<rect x="413.81" y="214.37" class="st0" width="22.47" height="2.65"/>
		<rect x="443.42" y="197.2" class="st0" width="28.28" height="2.65"/>
		<rect x="443.42" y="201.49" class="st0" width="28.28" height="2.65"/>
		<rect x="443.42" y="205.78" class="st0" width="28.28" height="2.65"/>
		<rect x="443.42" y="210.08" class="st0" width="28.28" height="2.65"/>
		<rect x="443.42" y="214.37" class="st0" width="28.28" height="2.65"/>
		<rect x="413.81" y="222.96" class="st0" width="22.47" height="2.65"/>
		<rect x="413.81" y="227.25" class="st0" width="22.47" height="2.65"/>
		<rect x="413.81" y="231.54" class="st0" width="22.47" height="2.65"/>
		<rect x="413.81" y="235.84" class="st0" width="22.47" height="2.65"/>
		<rect x="413.81" y="240.13" class="st0" width="22.47" height="2.65"/>
		<rect x="443.42" y="222.96" class="st0" width="28.28" height="2.65"/>
		<rect x="443.42" y="227.25" class="st0" width="28.28" height="2.65"/>
		<rect x="443.42" y="231.54" class="st0" width="28.28" height="2.65"/>
		<rect x="443.42" y="235.84" class="st0" width="28.28" height="2.65"/>
		<rect x="443.42" y="240.13" class="st0" width="28.28" height="2.65"/>
		<path class="st0" d="M466.49,186.96h-48.63c-2.56,0-4.63-2.07-4.63-4.63v-1.35c0-2.56,2.07-4.63,4.63-4.63h48.63
			c2.56,0,4.63,2.07,4.63,4.63v1.35C471.12,184.89,469.05,186.96,466.49,186.96z"/>
		<polygon class="st0" points="465.68,264.47 465.7,264.47 465.7,253.55 460.27,253.55 460.27,264.47 460.29,264.47 462.99,261.77 
					"/>
		<circle class="st3" cx="462.99" cy="253.55" r="4.84"/>
	</g>
	<g>
		<rect x="344.16" y="162.25" class="st2" width="48.52" height="48.52"/>
		<circle cx="368.42" cy="157.96" r="2.66"/>
		<g>
			<g transform="translate(0.000000,511.000000) scale(0.100000,-0.100000)">
				<path class="st0" d="M3681.79,3438.4c-3.39-0.74-5.81-2.58-7.58-5.81c-1.62-2.87-1.62-2.87-1.62-49.24
					c0-43.42-0.07-46.67-1.4-50.86c-0.74-2.5-2.43-6.03-3.68-7.95c-2.95-4.64-20.31-21.93-20.98-20.9
					c-0.81,1.25-0.59,31.5,0.3,39.08c0.37,3.83,1.25,10.67,1.91,15.09c0.66,4.49,1.03,9.86,0.81,12.07
					c-0.74,6.99-6.77,17.08-11.78,19.73c-3.61,1.84-10.16,1.54-16.71-0.88c-23.11-8.47-45.56-26.42-61.09-48.72
					c-17.81-25.69-33.27-55.36-42.24-81.19c-5.45-15.53-8.17-27.09-12.88-54.47c-8.02-46.37-9.35-58.37-8.68-80.6
					c1.03-33.34,6.11-43.87,20.24-41.58c4.93,0.81,12.29,4.34,26.27,12.66c13.47,7.95,24.07,12.44,48.95,20.61
					c25.91,8.54,32.68,11.85,40.92,20.02c6.77,6.84,11.19,14.5,14.87,26.27c5,15.68,5.67,30.84,2.06,49.61
					c-2.65,14.28-2.95,18.69-1.62,28.71c0.66,4.79,1.18,13.91,1.18,20.24v11.48l14.57,14.43c21.34,21.27,20.17,21.27,41.58,0
					l14.5-14.43v-11.85c0-6.48,0.51-15.6,1.18-20.24c1.25-9.64,1.03-14.28-1.62-28.34c-3.61-18.77-2.95-33.93,2.06-49.61
					c3.68-11.7,8.1-19.43,14.87-26.27c5.23-5.23,6.99-6.48,14.43-10.08c4.64-2.28,13.77-5.81,20.24-7.88
					c30.25-9.72,41.22-14.28,57.56-23.99c5.89-3.46,12.88-7.36,15.38-8.54c7.87-3.68,14.94-3.98,19.36-0.81
					c3.09,2.21,6.48,10.01,7.87,18.26c1.84,10.45,1.84,43.87,0.07,57.41c-2.13,16.05-10.74,65.65-13.02,75.08
					c-7.95,33.2-25.91,71.4-49.32,105.03c-10.38,14.94-24.8,28.85-39.08,37.76c-18.03,11.19-31.87,15.46-38.64,11.93
					c-5.15-2.72-11.12-12.59-11.78-19.73c-0.3-2.35,0.22-8.39,1.25-15.01c1.25-8.47,1.69-15.53,1.99-30.32
					c0.15-10.67,0.07-19.95-0.15-20.61c-0.37-0.96-2.5,0.81-10.08,8.32c-10.3,10.23-12.59,13.32-14.72,20.24
					c-1.32,4.19-1.4,7.51-1.4,50.56c0,45.04,0,46.15-1.55,49.17C3692.31,3437.08,3687.02,3439.58,3681.79,3438.4z"/>
			</g>
		</g>
	</g>
	<g>
		<rect x="344.16" y="223.27" class="st2" width="48.52" height="48.52"/>
		<circle cx="368.42" cy="218.98" r="2.66"/>
		<g id="g4" transform="translate(-4.773,-20.868086)">
			<path id="path6" class="st0" d="M376.55,259.33c0,0-0.59,1.14-0.72,2.82c-0.1,1.37,0.27,4.69,0.52,5.76
				c0.3,1.27,0.9,1.57,2.03,1.6c1.14,0.03,3.62-1.41,4.28-1.76c0.6-0.32,3.75-2.29,7.38-6.24c0.22-0.24,1.54-2.03,0.06-2.48
				c-0.94-0.28-11.14-0.87-12.28-0.79c-1.14,0.08-5.94-0.09-6.8-0.22c-0.65-0.1-5.88-0.99-10.27,1.18
				c-4.39,2.17-5.15,5.18-5.15,8.36c0,2.35,1.11,3.83,2.11,7.07c0.93,3.01,1.94,5.22,2.34,6.05c0.14,0.28,1.01,1.06,1.85,0.66
				c0.84-0.39,6.21-6.73,8.1-8.04c1.89-1.3,5.57-2.15,5.6-3.72c0.04-1.57-0.23-8.19-1.05-8.62c-0.82-0.43-0.35-1.29-0.18-1.35
				C375.06,259.36,376.68,259.15,376.55,259.33z"/>
		</g>
	</g>
</g>
<rect x="95.56" y="454.85" class="st4" width="421.72" height="12.26"/>
<g>
	<rect x="442.18" y="322.09" class="st5" width="75.1" height="145.02"/>
	<rect x="432.96" y="310.85" class="st1" width="84.32" height="11.23"/>
	<rect x="454.4" y="336.38" class="st6" width="62.87" height="22.47"/>
	<rect x="454.4" y="367.02" class="st6" width="62.87" height="22.47"/>
	<rect x="454.4" y="397.66" class="st6" width="62.87" height="22.47"/>
	<rect x="454.4" y="428.3" class="st6" width="62.87" height="22.47"/>
</g>
<g>
	<g>
		
			<rect x="363" y="300.41" transform="matrix(0.9786 0.2058 -0.2058 0.9786 72.261 -68.2661)" class="st4" width="2.68" height="25.76"/>
		
			<rect x="363.12" y="301.96" transform="matrix(0.9786 0.2058 -0.2058 0.9786 70.844 -68.2914)" class="st6" width="1.28" height="9"/>
		
			<rect x="366.45" y="299.77" transform="matrix(0.9786 0.2058 -0.2058 0.9786 69.6335 -69.1104)" class="st6" width="1.28" height="0.93"/>
	</g>
	<g>
		
			<rect x="351.95" y="302.73" transform="matrix(0.9912 -0.1326 0.1326 0.9912 -38.7225 49.6209)" class="st4" width="2.68" height="25.76"/>
		
			<rect x="350.19" y="301.93" transform="matrix(0.9912 -0.1326 0.1326 0.9912 -36.9852 49.2697)" class="st5" width="2.66" height="0.93"/>
		
			<rect x="350.03" y="300.52" transform="matrix(0.9912 -0.1326 0.1326 0.9912 -36.8358 49.2395)" class="st7" width="2.66" height="1.47"/>
	</g>
	<rect x="348.32" y="317.36" class="st1" width="20.87" height="28.72"/>
</g>
<path class="st4" d="M380.92,346.09h-177.5v10.72c0,0.17-0.01,0.34-0.03,0.51h177.52V346.09z"/>
<g>
	<rect x="132.48" y="357.32" class="st7" width="233.28" height="109.79"/>
	<g>
		<path class="st4" d="M145.21,346.09h-27.9v11.23h27.92c-0.01-0.17-0.03-0.34-0.03-0.51V346.09z"/>
		<path class="st4" d="M203.43,346.09h-58.21v10.72c0,0.17,0.01,0.34,0.03,0.51h58.16c0.01-0.17,0.03-0.34,0.03-0.51V346.09z"/>
	</g>
</g>
<g>
	<path class="st1" d="M213.69,343.2c0-3.66-2.96-6.62-6.62-6.62h-35.44c-3.66,0-6.62,2.96-6.62,6.62v3.42h48.68V343.2z"/>
	<path class="st1" d="M224.55,317.58h-70.4c-5.5,0-9.96-4.46-9.96-9.96v-37.09c0-5.5,4.46-9.96,9.96-9.96h70.4
		c5.5,0,9.96,4.46,9.96,9.96v37.09C234.51,313.12,230.05,317.58,224.55,317.58z"/>
	<path class="st4" d="M198.43,310.28c0-4.79-3.88-8.67-8.67-8.67h-0.8c-4.79,0-8.67,3.88-8.67,8.67v26.3h18.15V310.28z"/>
</g>
<path class="st7" d="M313.99,329.99h-43.66c-9.59,0-17.36-7.77-17.36-17.36v-4.6c0-9.59,7.77-17.36,17.36-17.36h43.66
	c9.59,0,17.36,7.77,17.36,17.36v4.6C331.35,322.21,323.58,329.99,313.99,329.99z"/>
<rect x="285.17" y="329.99" class="st8" width="13.98" height="16.1"/>
<g>
	<rect x="218.77" y="410.59" class="st9" width="13.49" height="88.08"/>
	<rect x="242.91" y="410.59" class="st9" width="13.49" height="88.08"/>
	<path class="st10" d="M217.52,484.44c-8.15,0-14.76,6.6-14.77,14.75c0,0,0,0.01,0,0.01h29.53
		C232.29,491.05,225.67,484.44,217.52,484.44z"/>
	<path class="st10" d="M257.68,484.44c-8.15,0.02-14.74,6.63-14.73,14.78h29.53c0.01-8.15-6.6-14.77-14.75-14.78
		C257.71,484.44,257.7,484.44,257.68,484.44z"/>
	<path class="st11" d="M237.6,283.58L237.6,283.58c21.4,0,38.75,17.35,38.75,38.75v77.27c0,21.4-17.35,38.75-38.75,38.75l0,0
		c-21.4,0-38.75-17.35-38.75-38.75v-77.27C198.85,300.93,216.2,283.58,237.6,283.58z"/>
	<ellipse class="st12" cx="237.6" cy="218.84" rx="54.44" ry="62.02"/>
	<ellipse class="st12" cx="237.6" cy="221.55" rx="53.79" ry="56.04"/>
	<path class="st13" d="M237.6,258.84L237.6,258.84c5.88,0,10.65,4.77,10.65,10.65v19.88c0,5.88-4.77,10.65-10.65,10.65l0,0
		c-5.88,0-10.65-4.77-10.65-10.65V269.5C226.95,263.61,231.72,258.84,237.6,258.84z"/>
	<path class="st9" d="M237.6,167.1L237.6,167.1c21.4,0,38.75,17.35,38.75,38.75v31.39c0,21.4-17.35,38.75-38.75,38.75l0,0
		c-21.4,0-38.75-17.35-38.75-38.75v-31.39C198.85,184.45,216.2,167.1,237.6,167.1z"/>
	
		<ellipse transform="matrix(0.8029 -0.5961 0.5961 0.8029 -67.3628 169.0214)" class="st12" cx="221.93" cy="186.38" rx="34.73" ry="14.41"/>
	<path class="st12" d="M213.44,208.47l-14.06,8.12c-2.49,1.44-5.67,0.58-7.1-1.9l-2.12-3.67c-1.44-2.49-0.58-5.67,1.9-7.1
		l14.06-8.12c2.49-1.44,5.67-0.58,7.1,1.9l2.12,3.67C216.78,203.86,215.93,207.04,213.44,208.47z"/>
	
		<ellipse transform="matrix(0.7071 -0.7071 0.7071 0.7071 -52.5129 241.2793)" class="st12" cx="264.99" cy="184.03" rx="7.93" ry="22.3"/>
	<circle class="st14" cx="219.27" cy="212.59" r="6.26"/>
	<circle class="st14" cx="255.93" cy="212.59" r="6.26"/>
	<path class="st13" d="M237.59,208.67L237.59,208.67c1.91,0,3.46,1.55,3.46,3.45v22.23c0,1.91-1.55,3.45-3.45,3.45h-0.01
		c-1.91,0-3.45-1.55-3.45-3.45v-22.23C234.14,210.22,235.69,208.67,237.59,208.67z"/>
	<path class="st15" d="M237.6,255.88c4.31-0.05,8.43,1.76,11.31,4.97c2.37-2.39,3.71-5.6,3.75-8.96c0-0.06,0-0.12,0-0.19
		l-29.19-4.48c-0.61,1.48-0.92,3.07-0.93,4.67c0.03,3.36,1.38,6.58,3.75,8.96C229.17,257.65,233.29,255.84,237.6,255.88z"/>
	<path class="st16" d="M237.6,265.51c4.25,0.04,8.33-1.64,11.31-4.66c-5.74-6.25-15.47-6.66-21.71-0.92
		c-0.32,0.29-0.62,0.6-0.92,0.92C229.27,263.87,233.35,265.55,237.6,265.51z"/>
	<path class="st17" d="M198.85,320.83v58.37c0,17.29,11.47,32.49,28.09,37.25V283.58C210.32,288.34,198.86,303.54,198.85,320.83z"/>
	<path class="st17" d="M248.26,283.58v132.86c16.63-4.75,28.09-19.95,28.09-37.25v-58.37C276.34,303.53,264.88,288.34,248.26,283.58
		z"/>
	<path class="st17" d="M198.85,360.6v58.36c0,17.29,11.46,32.49,28.09,37.25V323.35C210.32,328.11,198.86,343.31,198.85,360.6z"/>
	<path class="st17" d="M248.26,323.35v132.87c16.63-4.76,28.09-19.96,28.09-37.25V360.6C276.34,343.31,264.88,328.11,248.26,323.35z
		"/>
	<path class="st18" d="M224.22,353.08l21.1-13.79c3.45-2.25,8.06-1.28,10.32,2.16l21.64,33.1c2.25,3.45,1.28,8.06-2.16,10.32
		l-21.1,13.79c-3.45,2.25-8.06,1.28-10.32-2.16l-21.64-33.1C219.81,359.95,220.78,355.34,224.22,353.08z"/>
	<path class="st17" d="M257.17,289.58L257.17,289.58c2.99-2.22,7.22-1.59,9.44,1.4l27.52,37.07c2.22,2.99,1.6,7.22-1.39,9.44l0,0
		c-2.99,2.22-7.22,1.59-9.44-1.4l-27.52-37.07C253.55,296.02,254.18,291.8,257.17,289.58z"/>
	<path class="st13" d="M235.4,372L235.4,372c-0.26-1.43,0.69-2.8,2.12-3.06l8.16-1.47c1.43-0.26,2.79,0.69,3.05,2.12l0,0.01
		c0.26,1.43-0.69,2.79-2.12,3.05l-8.16,1.47C237.03,374.38,235.66,373.43,235.4,372z"/>
	<path class="st17" d="M293.84,329.17L293.84,329.17c2.54,2.72,2.39,6.99-0.34,9.54l-33.24,30.99c-2.73,2.54-7,2.39-9.54-0.33l0,0
		c-2.54-2.72-2.39-6.99,0.34-9.54l33.24-30.99C287.03,326.29,291.3,326.44,293.84,329.17z"/>
	<path class="st9" d="M256.61,363.87L256.61,363.87c1.24,1.33,1.17,3.42-0.16,4.66l-5.31,4.95c-1.33,1.24-3.42,1.17-4.66-0.16l0,0
		c-1.24-1.33-1.17-3.42,0.16-4.66l5.31-4.95C253.29,362.47,255.37,362.54,256.61,363.87z"/>
	<path class="st9" d="M251.29,369.99L251.29,369.99c2.2,2.73,1.77,6.72-0.95,8.91l-7.96,6.42c-2.73,2.2-6.72,1.77-8.91-0.95l0,0
		c-2.2-2.73-1.77-6.72,0.95-8.91l7.96-6.42C245.1,366.84,249.09,367.26,251.29,369.99z"/>
	<path class="st17" d="M177.29,339.12L177.29,339.12c-2.82-2.44-3.13-6.7-0.69-9.52l33.2-38.39c2.44-2.82,6.7-3.13,9.52-0.69l0,0
		c2.82,2.44,3.13,6.7,0.69,9.52l-33.2,38.39C184.36,341.25,180.1,341.56,177.29,339.12z"/>
	<path class="st17" d="M137.7,295.74L137.7,295.74c2.44-2.82,6.7-3.13,9.52-0.69l38.39,33.2c2.82,2.44,3.13,6.7,0.69,9.52l0,0
		c-2.44,2.82-6.7,3.13-9.52,0.69l-38.39-33.2C135.58,302.82,135.27,298.56,137.7,295.74z"/>
	<path class="st9" d="M133.31,291.94L133.31,291.94c1.19-1.38,3.27-1.53,4.65-0.34l5.49,4.75c1.38,1.19,1.53,3.27,0.34,4.65l0,0
		c-1.19,1.38-3.27,1.53-4.65,0.34l-5.49-4.75C132.27,295.4,132.12,293.32,133.31,291.94z"/>
	<path class="st9" d="M120.37,280.75L120.37,280.75c2.29-2.65,6.29-2.94,8.94-0.65l7.74,6.69c2.65,2.29,2.94,6.29,0.65,8.94l0,0
		c-2.29,2.65-6.29,2.94-8.94,0.65l-7.74-6.69C118.37,287.4,118.08,283.4,120.37,280.75z"/>
	<path class="st13" d="M138.59,292.82L138.59,292.82c-1.13,0.91-2.79,0.74-3.7-0.39l-5.21-6.45c-0.91-1.13-0.73-2.78,0.4-3.69l0,0
		c1.13-0.91,2.78-0.73,3.69,0.4l5.21,6.45C139.89,290.26,139.72,291.91,138.59,292.82z"/>
</g>
</svg>
