<svg id="Vrstva_1" data-name="Vrstva 1" xmlns="http://www.w3.org/2000/svg" viewBox="0 0 421.72 421.72"><defs><style>.cls-1,.cls-5{fill:#abdced;}.cls-2{fill:#3c63ad;}.cls-3{fill:#fff;stroke:#6da4d9;stroke-width:3.5px;}.cls-3,.cls-5{stroke-miterlimit:10;}.cls-4{fill:#1d1d1b;}.cls-5{stroke:#4cc2f1;}.cls-6{fill:#6599cc;}.cls-7{fill:#f5fbff;}.cls-8{fill:#70c8f2;}.cls-9{fill:#9ec9ed;}.cls-10{fill:#3299cc;}.cls-11{fill:#f6c19a;}.cls-12{fill:#372338;}.cls-13{fill:#29badb;}.cls-14{fill:#fed882;}.cls-15{fill:#ef947e;}.cls-16{fill:#1e1e1c;}.cls-17{fill:#010101;}.cls-18{fill:#c62556;}.cls-19{fill:#e7edf3;}.cls-20{fill:#b1804a;}</style></defs><rect class="cls-1" width="421.72" height="421.72" rx="31.97"/><path class="cls-2" d="M95.56,506.92a32,32,0,0,0,32,32H485.31a32,32,0,0,0,32-32V467.11H95.56Z" transform="translate(-95.56 -117.16)"/><rect class="cls-3" x="310.33" y="45.08" width="75.08" height="109.54"/><circle class="cls-4" cx="347.87" cy="40.8" r="2.66"/><rect class="cls-1" x="318.25" y="80.03" width="22.47" height="2.65"/><rect class="cls-1" x="318.25" y="84.33" width="22.47" height="2.65"/><rect class="cls-1" x="318.25" y="88.62" width="22.47" height="2.65"/><rect class="cls-1" x="318.25" y="92.91" width="22.47" height="2.65"/><rect class="cls-1" x="318.25" y="97.21" width="22.47" height="2.65"/><rect class="cls-1" x="347.87" y="80.03" width="28.28" height="2.65"/><rect class="cls-1" x="347.87" y="84.33" width="28.28" height="2.65"/><rect class="cls-1" x="347.87" y="88.62" width="28.28" height="2.65"/><rect class="cls-1" x="347.87" y="92.91" width="28.28" height="2.65"/><rect class="cls-1" x="347.87" y="97.21" width="28.28" height="2.65"/><rect class="cls-1" x="318.25" y="105.79" width="22.47" height="2.65"/><rect class="cls-1" x="318.25" y="110.09" width="22.47" height="2.65"/><rect class="cls-1" x="318.25" y="114.38" width="22.47" height="2.65"/><rect class="cls-1" x="318.25" y="118.67" width="22.47" height="2.65"/><rect class="cls-1" x="318.25" y="122.97" width="22.47" height="2.65"/><rect class="cls-1" x="347.87" y="105.79" width="28.28" height="2.65"/><rect class="cls-1" x="347.87" y="110.09" width="28.28" height="2.65"/><rect class="cls-1" x="347.87" y="114.38" width="28.28" height="2.65"/><rect class="cls-1" x="347.87" y="118.67" width="28.28" height="2.65"/><rect class="cls-1" x="347.87" y="122.97" width="28.28" height="2.65"/><rect class="cls-1" x="317.68" y="59.19" width="57.89" height="10.61" rx="4.63"/><polygon class="cls-1" points="370.12 147.3 370.14 147.3 370.14 136.39 364.72 136.39 364.72 147.3 364.74 147.3 367.43 144.61 370.12 147.3"/><circle class="cls-5" cx="367.43" cy="136.39" r="4.84"/><rect class="cls-3" x="248.6" y="45.08" width="48.52" height="48.52"/><circle class="cls-4" cx="272.86" cy="40.8" r="2.66"/><path class="cls-1" d="M368.18,167.16a1.09,1.09,0,0,0-.76.58c-.16.29-.16.29-.16,4.93,0,4.34,0,4.66-.14,5.08a3.45,3.45,0,0,1-.37.8,11.92,11.92,0,0,1-2.1,2.09,30.44,30.44,0,0,1,0-3.91c0-.39.13-1.07.19-1.51A5.69,5.69,0,0,0,365,174a3,3,0,0,0-1.17-2,2.29,2.29,0,0,0-1.67.09A13.32,13.32,0,0,0,356,177a35.7,35.7,0,0,0-4.23,8.12,30.77,30.77,0,0,0-1.29,5.45c-.8,4.63-.93,5.83-.86,8.06.1,3.33.61,4.38,2,4.15a9.21,9.21,0,0,0,2.63-1.26,21.07,21.07,0,0,1,4.89-2.06c2.59-.86,3.27-1.19,4.1-2a6.08,6.08,0,0,0,1.48-2.62,9.57,9.57,0,0,0,.21-5,7.12,7.12,0,0,1-.16-2.87,20.21,20.21,0,0,0,.11-2v-1.15l1.46-1.44c2.14-2.13,2-2.13,4.16,0l1.45,1.44V185a16.76,16.76,0,0,0,.12,2,7.56,7.56,0,0,1-.16,2.84,9.47,9.47,0,0,0,.2,5,6,6,0,0,0,1.49,2.62,3.93,3.93,0,0,0,1.44,1,18.59,18.59,0,0,0,2,.79,23.63,23.63,0,0,1,5.76,2.4c.59.35,1.29.74,1.54.85a1.93,1.93,0,0,0,1.93.08,3.29,3.29,0,0,0,.79-1.82,29.67,29.67,0,0,0,0-5.74c-.21-1.61-1.07-6.57-1.3-7.51a32.77,32.77,0,0,0-4.93-10.5,14,14,0,0,0-3.91-3.78c-1.81-1.12-3.19-1.54-3.87-1.19a3,3,0,0,0-1.17,2,7.52,7.52,0,0,0,.12,1.5,21.43,21.43,0,0,1,.2,3c0,1.06,0,2,0,2.06s-.25-.08-1-.83c-1-1-1.26-1.34-1.48-2-.13-.42-.14-.75-.14-5.06,0-4.5,0-4.61-.15-4.91A1.12,1.12,0,0,0,368.18,167.16Z" transform="translate(-95.56 -117.16)"/><rect class="cls-3" x="248.6" y="106.1" width="48.52" height="48.52"/><circle class="cls-4" cx="272.86" cy="101.82" r="2.66"/><g id="g4"><path id="path6" class="cls-1" d="M371.78,238.47a7.94,7.94,0,0,0-.72,2.81,28.93,28.93,0,0,0,.53,5.76,1.76,1.76,0,0,0,2,1.59c1.13,0,3.62-1.41,4.27-1.76a33.39,33.39,0,0,0,7.38-6.24c.22-.24,1.54-2,.05-2.48-.94-.28-11.14-.87-12.28-.79s-5.94-.09-6.8-.22c-.65-.11-5.88-1-10.27,1.18s-5.15,5.18-5.15,8.35c0,2.36,1.11,3.83,2.12,7.08a44.08,44.08,0,0,0,2.34,6.05,1.63,1.63,0,0,0,1.85.66c.83-.4,6.2-6.74,8.09-8s5.57-2.15,5.6-3.72-.23-8.19-1-8.63a.8.8,0,0,1-.18-1.34C370.28,238.49,371.91,238.28,371.78,238.47Z" transform="translate(-95.56 -117.16)"/></g><rect class="cls-6" y="337.69" width="421.72" height="12.26"/><rect class="cls-7" x="346.62" y="204.92" width="75.1" height="145.02"/><rect class="cls-2" x="337.4" y="193.69" width="84.32" height="11.23"/><rect class="cls-8" x="358.85" y="219.22" width="62.87" height="22.47"/><rect class="cls-8" x="358.85" y="249.86" width="62.87" height="22.47"/><rect class="cls-8" x="358.85" y="280.5" width="62.87" height="22.47"/><rect class="cls-8" x="358.85" y="311.13" width="62.87" height="22.47"/><rect class="cls-6" x="363" y="300.41" width="2.68" height="25.76" transform="translate(-23.3 -185.43) rotate(11.87)"/><rect class="cls-8" x="363.12" y="301.96" width="1.28" height="9" transform="translate(-24.71 -185.46) rotate(11.87)"/><rect class="cls-8" x="366.45" y="299.77" width="1.28" height="0.93" transform="translate(-25.92 -186.27) rotate(11.87)"/><rect class="cls-6" x="351.95" y="302.73" width="2.68" height="25.76" transform="matrix(0.99, -0.13, 0.13, 0.99, -134.28, -67.54)"/><rect class="cls-7" x="350.18" y="301.9" width="2.66" height="0.93" transform="translate(-132.54 -67.89) rotate(-7.62)"/><rect class="cls-9" x="350.03" y="300.49" width="2.66" height="1.47" transform="translate(-132.39 -67.93) rotate(-7.62)"/><rect class="cls-2" x="252.76" y="200.2" width="20.87" height="28.72"/><path class="cls-6" d="M380.92,346.09H203.43v10.72c0,.17,0,.34,0,.51H380.92Z" transform="translate(-95.56 -117.16)"/><rect class="cls-9" x="36.92" y="240.16" width="233.28" height="109.79"/><path class="cls-6" d="M145.21,346.09h-27.9v11.23h27.93c0-.17,0-.34,0-.51Z" transform="translate(-95.56 -117.16)"/><path class="cls-6" d="M203.43,346.09H145.21v10.72c0,.17,0,.34,0,.51H203.4c0-.17,0-.34,0-.51Z" transform="translate(-95.56 -117.16)"/><path class="cls-2" d="M213.69,343.2a6.62,6.62,0,0,0-6.62-6.62H171.63A6.62,6.62,0,0,0,165,343.2v3.41h48.68Z" transform="translate(-95.56 -117.16)"/><rect class="cls-2" x="48.63" y="143.4" width="90.32" height="57.01" rx="9.96"/><path class="cls-6" d="M198.43,310.28a8.68,8.68,0,0,0-8.68-8.68H189a8.68,8.68,0,0,0-8.67,8.68v26.3h18.15Z" transform="translate(-95.56 -117.16)"/><rect class="cls-9" x="157.41" y="173.5" width="78.38" height="39.32" rx="17.36"/><rect class="cls-10" x="189.61" y="212.82" width="13.98" height="16.1"/><rect class="cls-11" x="123.21" y="293.42" width="13.49" height="88.08"/><rect class="cls-11" x="147.36" y="293.42" width="13.49" height="88.08"/><path class="cls-12" d="M217.52,484.44a14.77,14.77,0,0,0-14.77,14.76h29.54A14.77,14.77,0,0,0,217.52,484.44Z" transform="translate(-95.56 -117.16)"/><path class="cls-12" d="M257.68,484.44A14.77,14.77,0,0,0,243,499.22h29.54a14.78,14.78,0,0,0-14.76-14.78Z" transform="translate(-95.56 -117.16)"/><path class="cls-13" d="M237.6,283.58h0a38.75,38.75,0,0,1,38.75,38.75v77.26a38.75,38.75,0,0,1-38.75,38.75h0a38.75,38.75,0,0,1-38.75-38.75V322.33A38.75,38.75,0,0,1,237.6,283.58Z" transform="translate(-95.56 -117.16)"/><ellipse class="cls-14" cx="142.04" cy="101.68" rx="54.44" ry="62.02"/><ellipse class="cls-14" cx="142.04" cy="104.38" rx="53.79" ry="56.04"/><path class="cls-15" d="M237.6,258.84h0a10.66,10.66,0,0,1,10.66,10.66v19.88A10.66,10.66,0,0,1,237.6,300h0A10.65,10.65,0,0,1,227,289.38V269.5A10.65,10.65,0,0,1,237.6,258.84Z" transform="translate(-95.56 -117.16)"/><path class="cls-11" d="M237.6,167.1h0a38.75,38.75,0,0,1,38.75,38.75v31.39A38.75,38.75,0,0,1,237.6,276h0a38.75,38.75,0,0,1-38.75-38.75V205.85A38.75,38.75,0,0,1,237.6,167.1Z" transform="translate(-95.56 -117.16)"/><ellipse class="cls-14" cx="221.93" cy="186.38" rx="34.73" ry="14.41" transform="matrix(0.8, -0.6, 0.6, 0.8, -162.92, 51.86)"/><rect class="cls-14" x="189.44" y="198.88" width="26.63" height="14.63" rx="5.2" transform="translate(-171.49 11.84) rotate(-30)"/><ellipse class="cls-14" cx="264.99" cy="184.03" rx="7.93" ry="22.3" transform="translate(-148.07 124.12) rotate(-45)"/><circle class="cls-16" cx="123.71" cy="95.42" r="6.26"/><circle class="cls-16" cx="160.38" cy="95.42" r="6.26"/><rect class="cls-15" x="138.59" y="91.51" width="6.91" height="29.13" rx="3.45"/><path class="cls-17" d="M237.6,255.88a15,15,0,0,1,11.31,5,12.9,12.9,0,0,0,3.75-9v-.18l-29.19-4.48a12.46,12.46,0,0,0-.92,4.67,12.86,12.86,0,0,0,3.74,9A15,15,0,0,1,237.6,255.88Z" transform="translate(-95.56 -117.16)"/><path class="cls-18" d="M237.6,265.51a15.68,15.68,0,0,0,11.31-4.66,15.37,15.37,0,0,0-21.71-.92c-.32.3-.62.6-.91.92A15.68,15.68,0,0,0,237.6,265.51Z" transform="translate(-95.56 -117.16)"/><path class="cls-19" d="M198.85,320.83v58.36A38.76,38.76,0,0,0,227,416.44V283.58A38.77,38.77,0,0,0,198.85,320.83Z" transform="translate(-95.56 -117.16)"/><path class="cls-19" d="M248.26,283.58V416.44a38.74,38.74,0,0,0,28.09-37.25V320.83A38.76,38.76,0,0,0,248.26,283.58Z" transform="translate(-95.56 -117.16)"/><path class="cls-19" d="M198.85,360.6V419A38.77,38.77,0,0,0,227,456.22V323.35A38.77,38.77,0,0,0,198.85,360.6Z" transform="translate(-95.56 -117.16)"/><path class="cls-19" d="M248.26,323.35V456.22A38.78,38.78,0,0,0,276.35,419V360.6A38.77,38.77,0,0,0,248.26,323.35Z" transform="translate(-95.56 -117.16)"/><rect class="cls-20" x="229.61" y="341.75" width="40.12" height="54.45" rx="7.45" transform="translate(-256.75 79.56) rotate(-33.17)"/><path class="cls-19" d="M257.17,289.58h0a6.74,6.74,0,0,1,9.44,1.39l27.52,37.08a6.75,6.75,0,0,1-1.39,9.44h0a6.75,6.75,0,0,1-9.44-1.4L255.77,299A6.75,6.75,0,0,1,257.17,289.58Z" transform="translate(-95.56 -117.16)"/><rect class="cls-15" x="235.3" y="368.17" width="13.54" height="5.26" rx="2.63" transform="translate(-157.51 -68.33) rotate(-10.22)"/><path class="cls-19" d="M293.84,329.17h0a6.74,6.74,0,0,1-.34,9.53l-33.23,31a6.74,6.74,0,0,1-9.54-.33h0a6.74,6.74,0,0,1,.34-9.53l33.23-31A6.74,6.74,0,0,1,293.84,329.17Z" transform="translate(-95.56 -117.16)"/><rect class="cls-11" x="244.62" y="365.3" width="13.86" height="6.59" rx="3.29" transform="translate(-279.36 153.41) rotate(-43)"/><path class="cls-11" d="M251.29,370h0a6.34,6.34,0,0,1-.95,8.91l-8,6.43a6.34,6.34,0,0,1-8.91-1h0a6.34,6.34,0,0,1,.95-8.91l8-6.43A6.34,6.34,0,0,1,251.29,370Z" transform="translate(-95.56 -117.16)"/><path class="cls-19" d="M177.29,339.12h0a6.75,6.75,0,0,1-.69-9.52l33.19-38.39a6.75,6.75,0,0,1,9.52-.69h0A6.75,6.75,0,0,1,220,300l-33.2,38.39A6.74,6.74,0,0,1,177.29,339.12Z" transform="translate(-95.56 -117.16)"/><path class="cls-19" d="M137.7,295.74h0a6.75,6.75,0,0,1,9.52-.69l38.39,33.19a6.75,6.75,0,0,1,.69,9.52h0a6.73,6.73,0,0,1-9.51.69l-38.39-33.2A6.74,6.74,0,0,1,137.7,295.74Z" transform="translate(-95.56 -117.16)"/><path class="cls-11" d="M133.31,291.94h0a3.29,3.29,0,0,1,4.65-.33l5.49,4.75a3.28,3.28,0,0,1,.34,4.64h0a3.29,3.29,0,0,1-4.65.34l-5.49-4.75A3.29,3.29,0,0,1,133.31,291.94Z" transform="translate(-95.56 -117.16)"/><rect class="cls-11" x="122.7" y="276.79" width="12.68" height="22.91" rx="6.34" transform="translate(-268.96 80.15) rotate(-49.15)"/><rect class="cls-15" x="131.7" y="280.78" width="5.26" height="13.54" rx="2.63" transform="translate(-246.32 30.91) rotate(-38.89)"/></svg>